<svg xmlns="http://www.w3.org/2000/svg" viewBox="0 0 1107.69 1110.62"><defs><style>.cls-1{fill:none;stroke:#a441ea;stroke-miterlimit:10;stroke-width:30px;}</style></defs><g id="Layer_2" data-name="Layer 2"><g id="Layer_1-2" data-name="Layer 1"><path class="cls-1" d="M960,455.47a412,412,0,0,1,3.34,52.41,407.65,407.65,0,0,1-69.69,228.56"/><path class="cls-1" d="M147.67,455.47a412,412,0,0,0-3.34,52.41A407.64,407.64,0,0,0,214,736.44"/><line class="cls-1" x1="1023.73" y1="178.46" x2="1023.73" y2="94.74"/><line class="cls-1" x1="83.98" y1="178.46" x2="83.98" y2="94.74"/><path class="cls-1" d="M973.56,375.71a498.41,498.41,0,0,1,47.14-117.5"/><path class="cls-1" d="M88.18,258.21a292,292,0,0,1,38.91,67.93,290.56,290.56,0,0,1,15.06,49.57"/><path class="cls-1" d="M892.25,805.42v290.19H807.1V931.8a45.27,45.27,0,0,0-90.53,0v163.81H599.11V931.8a45.27,45.27,0,0,0-90.53,0v163.81H396.51V931.8a45.26,45.26,0,1,0-90.52,0v163.81H221.92V805.42"/><rect class="cls-1" x="58.11" y="375.72" width="991.47" height="79.75" rx="37.46"/><rect class="cls-1" x="15" y="178.46" width="1077.69" height="79.75" rx="37.46"/><rect class="cls-1" x="15" y="15" width="1077.69" height="79.75" rx="37.46"/><rect class="cls-1" x="173.42" y="736.45" width="760.85" height="68.97" rx="34.49"/><path class="cls-1" d="M599.1,931.8v163.82H508.58V931.8a45.26,45.26,0,1,1,90.52,0Z"/><path class="cls-1" d="M396.51,931.8v163.82H306V931.8a45.27,45.27,0,0,1,90.53,0Z"/><path class="cls-1" d="M807.09,931.8v163.82H716.57V931.8a45.26,45.26,0,0,1,90.52,0Z"/></g></g></svg>