<svg xmlns="http://www.w3.org/2000/svg" viewBox="0 0 1163.86 1118.54"><defs><style>.cls-1{fill:none;stroke:#a441ea;stroke-linecap:round;stroke-linejoin:round;stroke-width:30px;}.cls-2{fill:#a441ea;}</style></defs><g id="Layer_2" data-name="Layer 2"><g id="Layer_1-2" data-name="Layer 1"><path class="cls-1" d="M1001.4,365.49V1038c0,47.44-48.87,79.16-92.23,59.84L581.93,979.53,254.68,1097.79c-43.35,19.32-92.19-12.4-92.19-59.84V365.49A65.52,65.52,0,0,1,228,300H935.84A65.53,65.53,0,0,1,1001.4,365.49Z"/><path class="cls-1" d="M1148.86,80.47a127.23,127.23,0,0,1-127.24,127.21H852.73V300H770.82V207.68H385.32V300H303.39V207.68H142.24A127.23,127.23,0,0,1,15,80.47,65.48,65.48,0,0,1,80.47,15H1083.39A65.47,65.47,0,0,1,1148.86,80.47Z"/><circle class="cls-2" cx="811.78" cy="368.77" r="32.73"/><circle class="cls-2" cx="342.26" cy="359.28" r="32.73"/><path class="cls-2" d="M545.58,675.69,537,547.63q-2.41-37.44-2.41-53.74,0-22.2,11.63-34.63t30.61-12.43q23,0,30.75,15.91t7.75,45.85a349,349,0,0,1-1.87,35.83L602,676.23q-1.86,23.52-8,36.09t-20.32,12.56q-14.43,0-20-12.16T545.58,675.69Zm29.68,175.92a42.08,42.08,0,0,1-28.48-10.56q-12.16-10.56-12.16-29.54a39.71,39.71,0,0,1,40.1-39.84,39.62,39.62,0,0,1,28.74,11.63,38,38,0,0,1,11.9,28.21q0,18.72-12,29.41A41,41,0,0,1,575.26,851.61Z"/></g></g></svg>