<svg xmlns="http://www.w3.org/2000/svg" viewBox="0 0 1301.7 1092.21"><defs><style>.cls-1{fill:none;stroke:#a441ea;stroke-linecap:round;stroke-linejoin:round;stroke-width:30px;}</style></defs><g id="Layer_2" data-name="Layer 2"><g id="Layer_1-2" data-name="Layer 1"><polygon class="cls-1" points="918.32 317.83 740.16 317.83 721.13 265.21 721.11 265.17 674.84 137.19 800.22 137.19 868.2 241.2 868.23 241.2 918.32 317.83"/><rect class="cls-1" x="383.83" y="317.83" width="178.16" height="90.14"/><rect class="cls-1" x="740.16" y="317.83" width="178.16" height="90.14"/><rect class="cls-1" x="137.44" y="407.96" width="1025.26" height="669.25"/><rect class="cls-1" x="206.57" y="407.96" width="554.41" height="498.28"/><path class="cls-1" d="M849.94,463.24V1028.5h250.13V463.24Zm200.77,508.91H899.3V519.59h151.41Z"/><rect class="cls-1" x="186.92" y="906.24" width="593.7" height="53.65"/><polygon class="cls-1" points="500 137.19 432.77 241.74 432.75 241.74 383.83 317.83 205.66 317.83 362 137.19 500 137.19"/><polygon class="cls-1" points="623.66 137.19 579.17 267.54 579.14 267.56 561.99 317.83 383.83 317.83 432.75 241.74 432.77 241.74 500 137.19 623.66 137.19"/><polygon class="cls-1" points="740.16 317.83 561.99 317.83 579.14 267.56 579.17 267.54 623.66 137.19 674.84 137.19 721.11 265.17 721.13 265.21 740.16 317.83"/><polygon class="cls-1" points="1274.65 317.44 1274.65 317.83 1096.49 317.83 950 137.19 1054.58 137.19 1162.69 225.74 1172.25 233.58 1274.65 317.44"/><path class="cls-1" d="M265.35,15h769.43a18,18,0,0,1,18,18V137.18a0,0,0,0,1,0,0H247.39a0,0,0,0,1,0,0V33a18,18,0,0,1,18-18Z"/><path class="cls-1" d="M362,137.19,205.66,317.83H30a.92.92,0,0,1-.59-1.62l99.86-82.72,8.13-6.73,108.11-89.57Z"/><polygon class="cls-1" points="1096.49 317.83 918.32 317.83 868.23 241.2 868.2 241.2 800.22 137.19 950 137.19 1096.49 317.83"/><rect class="cls-1" x="15" y="317.83" width="190.66" height="90.14"/><rect class="cls-1" x="205.66" y="317.83" width="178.16" height="90.14"/><rect class="cls-1" x="561.99" y="317.83" width="178.16" height="90.14"/><rect class="cls-1" x="918.32" y="317.83" width="178.16" height="90.14"/><rect class="cls-1" x="1096.49" y="317.83" width="190.21" height="90.14"/><rect class="cls-1" x="258.39" y="484.17" width="444.48" height="422.07"/></g></g></svg>