<svg xmlns="http://www.w3.org/2000/svg" viewBox="0 0 1139.62 1106.12"><defs><style>.cls-1{fill:none;stroke:#a441ea;stroke-linecap:round;stroke-linejoin:round;stroke-width:30px;}</style></defs><g id="Layer_2" data-name="Layer 2"><g id="Layer_1-2" data-name="Layer 1"><path class="cls-1" d="M448.18,386.67a50.49,50.49,0,1,1-50.48-50.48A50.49,50.49,0,0,1,448.18,386.67Z"/><path class="cls-1" d="M620.29,719.45A50.49,50.49,0,1,1,569.81,669,50.48,50.48,0,0,1,620.29,719.45Z"/><path class="cls-1" d="M691.43,553.06a50.48,50.48,0,0,0,50.49,50.49V669a50.48,50.48,0,0,0-50.49,50.48H620.29a50.49,50.49,0,0,0-101,0H448.18A50.48,50.48,0,0,0,397.7,669V603.55a50.49,50.49,0,0,0,0-101V437.16a50.49,50.49,0,0,0,50.48-50.49h71.14a50.49,50.49,0,1,0,101,0h71.14a50.49,50.49,0,0,0,50.49,50.49v65.42A50.48,50.48,0,0,0,691.43,553.06Z"/><path class="cls-1" d="M287.36,231.19a50.49,50.49,0,1,1-50.49-50.49A50.48,50.48,0,0,1,287.36,231.19Z"/><path class="cls-1" d="M902.74,502.58V281.67a50.48,50.48,0,0,1-50.48-50.48h-232a50.49,50.49,0,0,1-101,0h-232a50.48,50.48,0,0,1-50.49,50.48V502.58a50.49,50.49,0,1,1,0,101v220.9a50.49,50.49,0,0,1,50.49,50.49h232a50.49,50.49,0,1,1,101,0h232a50.49,50.49,0,0,1,50.48-50.49V603.55a50.49,50.49,0,0,1-50.49-50.48h0A50.49,50.49,0,0,1,902.74,502.58ZM741.92,336.19a50.49,50.49,0,1,1-50.49,50.48A50.48,50.48,0,0,1,741.92,336.19Zm-172.11,0a50.49,50.49,0,1,1-50.49,50.48A50.48,50.48,0,0,1,569.81,336.19Zm-172.11,0a50.49,50.49,0,1,1-50.49,50.48A50.48,50.48,0,0,1,397.7,336.19Zm0,166.39a50.49,50.49,0,1,1-50.49,50.48A50.48,50.48,0,0,1,397.7,502.58Zm0,267.36a50.49,50.49,0,1,1,50.48-50.49A50.49,50.49,0,0,1,397.7,769.94Zm172.11,0a50.49,50.49,0,1,1,50.48-50.49A50.48,50.48,0,0,1,569.81,769.94Zm172.11,0a50.49,50.49,0,1,1,50.48-50.49A50.48,50.48,0,0,1,741.92,769.94Zm0-166.39a50.49,50.49,0,1,1,50.48-50.49A50.48,50.48,0,0,1,741.92,603.55Z"/><path class="cls-1" d="M953.23,231.19a50.49,50.49,0,1,1-50.49-50.49A50.49,50.49,0,0,1,953.23,231.19Z"/><path class="cls-1" d="M1074.13,502.58V116a50.49,50.49,0,0,1-50.48-50.49H620.29a50.49,50.49,0,1,1-101,0H116A50.5,50.5,0,0,1,65.48,116v386.6a50.49,50.49,0,1,1,0,101v386.6A50.49,50.49,0,0,1,116,1040.64H519.32a50.49,50.49,0,1,1,101,0h403.36a50.48,50.48,0,0,1,50.48-50.49V603.55a50.49,50.49,0,0,1,0-101ZM902.74,180.7a50.49,50.49,0,1,1-50.48,50.49A50.5,50.5,0,0,1,902.74,180.7Zm-505,589.24a50.49,50.49,0,1,1,50.48-50.49A50.49,50.49,0,0,1,397.7,769.94ZM741.92,603.55a50.49,50.49,0,1,1,50.48-50.49A50.48,50.48,0,0,1,741.92,603.55Zm50.48,115.9A50.49,50.49,0,1,1,741.92,669,50.48,50.48,0,0,1,792.4,719.45ZM741.92,336.19a50.49,50.49,0,1,1-50.49,50.48A50.48,50.48,0,0,1,741.92,336.19Zm-172.11,101a50.49,50.49,0,1,1,50.48-50.49A50.49,50.49,0,0,1,569.81,437.16ZM448.18,386.67a50.49,50.49,0,1,1-50.48-50.48A50.49,50.49,0,0,1,448.18,386.67ZM397.7,502.58a50.49,50.49,0,1,1-50.49,50.48A50.48,50.48,0,0,1,397.7,502.58ZM569.81,669a50.49,50.49,0,1,1-50.49,50.48A50.48,50.48,0,0,1,569.81,669Zm0-488.27a50.49,50.49,0,1,1-50.49,50.49A50.49,50.49,0,0,1,569.81,180.7Zm-332.94,0a50.49,50.49,0,1,1-50.48,50.49A50.49,50.49,0,0,1,236.87,180.7Zm0,321.88a50.49,50.49,0,1,1-50.48,50.48A50.48,50.48,0,0,1,236.87,502.58Zm0,422.84a50.49,50.49,0,1,1,50.49-50.48A50.48,50.48,0,0,1,236.87,925.42Zm332.94,0a50.49,50.49,0,1,1,50.48-50.48A50.48,50.48,0,0,1,569.81,925.42Zm332.93,0a50.49,50.49,0,1,1,50.49-50.48A50.48,50.48,0,0,1,902.74,925.42Z"/><line class="cls-1" x1="569.81" y1="990.15" x2="569.81" y2="925.42"/><polyline class="cls-1" points="569.81 437.16 569.81 553.06 569.81 668.97"/><line class="cls-1" x1="569.81" y1="824.45" x2="569.81" y2="769.94"/><line class="cls-1" x1="569.81" y1="180.7" x2="569.81" y2="115.98"/><line class="cls-1" x1="569.81" y1="336.19" x2="569.81" y2="281.67"/><path class="cls-1" d="M287.36,553.06a50.49,50.49,0,1,1-50.49-50.48A50.48,50.48,0,0,1,287.36,553.06Z"/><polyline class="cls-1" points="448.18 553.06 569.81 553.06 691.43 553.06"/><line class="cls-1" x1="1023.65" y1="553.06" x2="953.23" y2="553.06"/><line class="cls-1" x1="852.25" y1="553.06" x2="792.4" y2="553.06"/><line class="cls-1" x1="347.21" y1="553.06" x2="287.36" y2="553.06"/><line class="cls-1" x1="186.39" y1="553.06" x2="115.97" y2="553.06"/><path class="cls-1" d="M116,65.49A50.49,50.49,0,1,1,65.48,15,50.5,50.5,0,0,1,116,65.49Z"/><path class="cls-1" d="M116,553.06a50.49,50.49,0,1,1-50.49-50.48A50.49,50.49,0,0,1,116,553.06Z"/><path class="cls-1" d="M116,1040.64a50.49,50.49,0,1,1-50.49-50.49A50.49,50.49,0,0,1,116,1040.64Z"/><path class="cls-1" d="M1124.62,65.49A50.49,50.49,0,1,1,1074.13,15,50.49,50.49,0,0,1,1124.62,65.49Z"/><path class="cls-1" d="M1124.62,553.06a50.49,50.49,0,1,1-50.49-50.48A50.48,50.48,0,0,1,1124.62,553.06Z"/><path class="cls-1" d="M1124.62,1040.64a50.49,50.49,0,1,1-50.49-50.49A50.48,50.48,0,0,1,1124.62,1040.64Z"/><path class="cls-1" d="M620.29,65.49A50.49,50.49,0,1,1,569.81,15,50.49,50.49,0,0,1,620.29,65.49Z"/><path class="cls-1" d="M620.29,1040.64a50.49,50.49,0,1,1-50.48-50.49A50.48,50.48,0,0,1,620.29,1040.64Z"/><path class="cls-1" d="M620.29,874.94a50.49,50.49,0,1,1-50.48-50.49A50.48,50.48,0,0,1,620.29,874.94Z"/><path class="cls-1" d="M620.29,386.67a50.49,50.49,0,1,1-50.48-50.48A50.49,50.49,0,0,1,620.29,386.67Z"/><path class="cls-1" d="M620.29,231.19a50.49,50.49,0,1,1-50.48-50.49A50.48,50.48,0,0,1,620.29,231.19Z"/><path class="cls-1" d="M448.18,553.06a50.49,50.49,0,1,1-50.48-50.48A50.48,50.48,0,0,1,448.18,553.06Z"/><path class="cls-1" d="M448.18,719.45A50.49,50.49,0,1,1,397.7,669,50.48,50.48,0,0,1,448.18,719.45Z"/><path class="cls-1" d="M792.4,553.06a50.49,50.49,0,1,1-50.48-50.48A50.48,50.48,0,0,1,792.4,553.06Z"/><path class="cls-1" d="M792.4,719.45A50.49,50.49,0,1,1,741.92,669,50.48,50.48,0,0,1,792.4,719.45Z"/><path class="cls-1" d="M287.36,874.94a50.49,50.49,0,1,1-50.49-50.49A50.48,50.48,0,0,1,287.36,874.94Z"/><path class="cls-1" d="M953.23,874.94a50.49,50.49,0,1,1-50.49-50.49A50.49,50.49,0,0,1,953.23,874.94Z"/><path class="cls-1" d="M953.23,553.06h0a50.49,50.49,0,0,1-101,0h0a50.49,50.49,0,0,1,101,0Z"/></g></g></svg>