<svg xmlns="http://www.w3.org/2000/svg" xmlns:xlink="http://www.w3.org/1999/xlink" viewBox="0 0 926.29 1106.12"><defs><style>.cls-1{fill:none;stroke:#a441ea;stroke-linecap:round;stroke-linejoin:round;stroke-width:30px;}.cls-2{fill:#a441ea;}.cls-3{fill:url(#radial-gradient);}</style><radialGradient id="radial-gradient" cx="695.64" cy="774.78" r="0" gradientUnits="userSpaceOnUse"><stop offset="0" stop-color="#ccb076"/><stop offset="1" stop-color="#a67f45"/></radialGradient></defs><g id="Layer_2" data-name="Layer 2"><g id="Layer_1-2" data-name="Layer 1"><path class="cls-1" d="M910.26,212.12a80.49,80.49,0,0,0-56-76.35L487.6,18.8a80.49,80.49,0,0,0-48.88,0L72,135.77a80.58,80.58,0,0,0-56,76.35L15,537c1.72,50.29,13.51,210.41,135.08,358.27,102.12,124.2,227.22,173.58,290.2,192.47a79.58,79.58,0,0,0,45.76,0c63-18.89,188.08-68.29,290.18-192.47C897.8,747.43,909.58,587.31,911.29,537Z"/><path class="cls-2" d="M737.08,290.17,517.27,510l75.28,75.27,62.55-20.89,4.63,7.24L607.25,600l-12.88,13.7,16.3,17.38L636,658.16l21.61,23.07L683,708.34l29.05,31a20.25,20.25,0,0,1,2.94-.21,22.09,22.09,0,1,1-22.08,22.1,19.71,19.71,0,0,1,.09-2l-31.31-29.54-27-25.5-23-21.68-27-25.47-17.37-16.43-13.61,12.92L523.18,703.8l-5.42-5.4L539,638.8l-75.3-75.27L388.45,638.8l21.24,59.6-5.4,5.4-30.57-50.29-13.58-12.92L342.74,657l-27,25.47-23,21.68-27,25.5-31.31,29.54c.05.67.09,1.35.09,2a22.06,22.06,0,0,1-37.47,15.79h0a22.08,22.08,0,0,1,15.43-37.89,19.7,19.7,0,0,1,2.9.21l29.06-31,25.4-27.11,21.59-23.07,25.38-27.1,16.28-17.38L320.19,600,267.74,571.6l4.6-7.24,62.58,20.89L410.2,510,190.37,290.17V236.62h53.55L463.75,456.45l219.8-219.83h53.53Z"/><line class="cls-3" x1="695.64" y1="774.78" x2="695.65" y2="774.78"/></g></g></svg>